<svg width="21" height="21" viewBox="0 0 21 21" fill="none" xmlns="http://www.w3.org/2000/svg">
<path d="M18.497 8.16667H1.5V8.875C1.5 9.25072 1.64926 9.61106 1.91493 9.87673C2.18061 10.1424 2.54094 10.2917 2.91667 10.2917H5.04167C5.41739 10.2917 5.77772 10.1424 6.0434 9.87673C6.30908 9.61106 6.45833 9.25072 6.45833 8.875C6.45833 9.25072 6.60759 9.61106 6.87327 9.87673C7.13894 10.1424 7.49928 10.2917 7.875 10.2917H12.125C12.5007 10.2917 12.8611 10.1424 13.1267 9.87673C13.3924 9.61106 13.5417 9.25072 13.5417 8.875C13.5417 9.25072 13.6909 9.61106 13.9566 9.87673C14.2223 10.1424 14.5826 10.2917 14.9583 10.2917H17.0833C17.4591 10.2917 17.8194 10.1424 18.0851 9.87673C18.3507 9.61106 18.5 9.25072 18.5 8.875V8.16667H18.497ZM18.3259 7.45833L17.0561 3.01354C17.0137 2.86558 16.9244 2.73542 16.8015 2.64276C16.6786 2.55011 16.5289 2.49999 16.375 2.5H13.1307L14.1223 7.45833H18.3259ZM6.86934 2.5H3.625C3.4711 2.49999 3.32138 2.55011 3.1985 2.64276C3.07562 2.73542 2.98626 2.86558 2.94394 3.01354L1.67407 7.45833H5.87768L6.86934 2.5ZM11.686 2.5H8.31399L7.32232 7.45833H12.6777L11.686 2.5ZM14.9583 11C14.4353 11.0004 13.9307 10.8072 13.5417 10.4576C13.1527 10.8072 12.648 11.0004 12.125 11H7.875C7.35198 11.0004 6.84733 10.8072 6.45833 10.4576C6.06934 10.8072 5.56468 11.0004 5.04167 11H2.91667C2.6752 10.9995 2.43562 10.9576 2.20833 10.876V18.7917C2.20833 18.9795 2.28296 19.1597 2.4158 19.2925C2.54864 19.4254 2.7288 19.5 2.91667 19.5H4.33333V13.125C4.33333 12.9371 4.40796 12.757 4.5408 12.6241C4.67364 12.4913 4.8538 12.4167 5.04167 12.4167H8.58333C8.77119 12.4167 8.95136 12.4913 9.0842 12.6241C9.21704 12.757 9.29167 12.9371 9.29167 13.125V19.5H17.0833C17.2712 19.5 17.4514 19.4254 17.5842 19.2925C17.717 19.1597 17.7917 18.9795 17.7917 18.7917V10.876C17.5644 10.9576 17.3248 10.9995 17.0833 11H14.9583ZM15.6667 15.25C15.6667 15.4379 15.592 15.618 15.4592 15.7509C15.3264 15.8837 15.1462 15.9583 14.9583 15.9583H11.4167C11.2288 15.9583 11.0486 15.8837 10.9158 15.7509C10.783 15.618 10.7083 15.4379 10.7083 15.25V13.125C10.7083 12.9371 10.783 12.757 10.9158 12.6241C11.0486 12.4913 11.2288 12.4167 11.4167 12.4167H14.9583C15.1462 12.4167 15.3264 12.4913 15.4592 12.6241C15.592 12.757 15.6667 12.9371 15.6667 13.125V15.25Z" fill="#9FBB73"/>
</svg>
