<svg width="64" height="64" viewBox="0 0 161 152" fill="none" xmlns="http://www.w3.org/2000/svg">
    <path
        d="M89.9756 2.7124C89.9756 2.7124 3.75264 59.0833 1.75176 62.0241C-0.249112 64.9649 2.09333 68.1234 4.69255 68.145C46.4749 68.4922 131.661 68.145 141.072 68.145C150.482 68.145 151.365 75.2577 151.365 78.4378V133.21C151.365 137.382 148.056 142.032 141.807 142.032H1.75176V147.675C1.75176 150.616 4.20242 151.106 5.42775 150.983H148.056C157.246 150.983 159.452 143.631 159.452 140.323C159.452 122.806 160.555 66.4353 158.717 62.7593C145.344 36.0138 104.312 5.41379 99.9007 2.473C96.2247 0.0223411 92.1811 1.00259 89.9756 2.7124Z"
        fill="#9FBB73" stroke="#9FBB73" />
    <path
        d="M1.75195 75.3169C1.75195 73.66 3.0951 72.3169 4.75195 72.3169H137.321C142.844 72.3169 147.321 76.794 147.321 82.3169V127.75C147.321 133.272 142.844 137.75 137.321 137.75H4.75195C3.0951 137.75 1.75195 136.406 1.75195 134.75V75.3169Z"
        fill="#C5D6AB" />
    <path
        d="M12.1461 85.085C11.2298 85.582 11.4678 84.0391 10.5547 84.3904C9.82132 83.2588 8.54882 82.7909 7.99191 81.5848C6.83598 79.0754 8.72529 79.5206 10.1564 80.1974C11.7414 80.9469 17.0111 79.7975 16.7537 83.1762C16.8799 83.2167 16.9949 83.1633 17.1179 83.2151C16.8977 83.963 17.2847 84.426 17.5631 85.0639C18.8599 84.9554 19.7908 86.1308 21.0309 86.3218C20.8901 86.9597 22.4378 89.2489 23.189 89.3881C23.2278 89.257 23.1857 89.1372 23.2359 89.0093C23.5128 89.2958 23.788 89.6132 23.911 90.0584C27.0226 89.2554 26.0448 92.2504 27.5261 93.1862C28.4667 93.7787 29.0706 93.1328 29.8202 94.2579C30.0776 94.6465 29.7846 95.2066 30.0792 95.511C30.2945 95.7328 31.2465 95.7992 31.5557 95.8995C31.5447 96.3539 31.4182 96.7979 31.1882 97.1898C32.4251 97.9087 33.7154 95.2325 34.6236 97.6059C33.9356 97.9426 32.7926 98.2648 33.0775 99.2281C33.5373 99.3625 34.0327 99.4062 34.52 99.4029C34.5184 100.28 33.0144 100.237 33.7299 100.975C34.2334 101.496 35.3149 100.941 35.8896 101.428C36.003 101.368 36.0256 101.226 36.126 101.181C36.4724 101.865 36.3721 103.015 36.0709 103.68C36.3235 103.551 36.5356 103.624 36.8059 103.434C37.0617 104.43 37.0585 105.081 38.0477 105.464C38.3877 105.595 38.9721 105.427 39.2651 105.579C39.7557 105.835 40.0244 106.326 40.4486 106.667C41.4879 107.503 41.4248 107.069 41.0476 108.333C40.842 109.031 40.4016 109.589 40.7368 110.543C39.903 111.119 40.5716 113.396 40.4761 114.357C40.2802 116.306 39.5209 114.846 38.2128 114.914C38.2177 115.264 37.9975 115.409 38.1351 115.821C37.5766 115.743 37.0974 115.314 36.5631 115.079C36.5647 115.307 36.3915 115.568 36.4125 115.822C35.4201 115.987 35.0931 114.1 34.405 113.506C33.7089 112.907 32.1725 112.971 32.3636 111.804C31.1817 111.673 28.5574 110.74 29.1257 109.117C27.2801 108.594 26.1776 106.73 25.0912 105.414C24.2866 104.436 24.9034 104.015 24.319 102.74C24.0049 102.055 22.4475 100.886 23.495 100.055C21.8436 99.0273 22.2047 97.4278 19.9948 97.0474C19.9284 96.1327 17.9209 93.2979 19.1513 92.8818C18.8534 92.1776 18.3467 92.4657 17.9776 92.0691C17.4449 91.4928 17.4547 91.2175 17.2507 90.3854C16.2874 91.0929 15.4342 88.5268 15.0198 87.9133C14.6587 87.3806 13.9577 86.4433 13.4996 86.0223C13.1126 85.6678 12.5201 85.6856 12.1477 85.2161M38.454 118.813C39.3493 119.392 39.9062 118.4 39.8237 117.483C40.9812 117.655 40.8452 116.716 41.5543 116.378C41.8975 116.212 43.251 116.277 43.7156 116.277C45.2407 116.277 46.7657 117.2 48.2778 117.482C48.2147 117.729 48.383 118.128 48.3183 118.382C49.8401 118.655 55.0515 120.504 54.2582 117.616C55.8707 117.258 57.488 118.356 58.8172 118.949C60.1738 119.554 59.6736 119.562 60.4361 120.674C60.8619 121.296 62.1441 122.293 62.6023 121.406C63.3551 122.329 67.2746 121.672 65.1748 124.045C65.8466 124.192 66.0134 124.782 65.8191 125.4C63.7679 125.709 63.4134 123.825 61.7993 123.802C61.1201 123.805 60.4417 123.759 59.7691 123.665C58.8771 123.551 58.3574 123.643 57.637 124.055C57.161 122.481 55.6521 123.582 54.6419 123.535C53.5426 123.485 51.8573 121.855 50.9879 122.441C50.7402 121.77 50.4763 122.118 50.0247 122.016C49.8158 121.969 48.5838 121.783 48.3571 121.808C47.3243 121.914 47.1688 122.881 45.9708 122.084C45.0448 121.469 45.1613 120.912 43.9827 120.702C43.0632 120.537 42.1291 120.962 41.2985 120.397C41.5867 120.041 41.4361 119.768 41.5349 119.376C40.6412 118.869 39.4691 119.408 38.6596 118.814C38.8539 119.07 38.943 119.368 39.1275 119.622M51.8104 91.5608C50.9669 91.7566 51.0754 92.7005 50.737 93.3513C50.4359 93.9325 49.492 94.1737 50.1785 94.933C49.2119 95.4236 49.764 95.749 49.9502 96.3868C50.1267 96.9907 50.5152 97.5088 50.478 98.2761C51.553 98.9173 52.5437 98.1078 53.6576 98.192C52.989 98.9561 52.1649 99.4693 51.3409 99.9242C52.7639 100.347 53.6058 102.935 52.2232 103.834C52.4693 104.321 52.955 104.671 53.1946 105.186C53.5345 105.919 53.3208 106.776 53.8276 107.469C54.6111 106.929 54.7811 107.02 55.5874 106.944C56.1831 106.887 56.3483 107.415 56.902 106.954C57.0396 107.153 57.2241 107.221 57.3423 107.342C57.4556 107.164 57.6321 107.014 57.7454 106.848C57.8847 106.821 58.1404 106.834 58.2894 106.819C58.6828 107.567 58.9305 108.171 58.8155 109.062C59.2931 107.603 60.305 108.817 61.3848 108.317C61.9013 108.079 62.1603 107.611 62.7415 107.507C63.2304 107.422 63.4846 108.221 64.2018 107.899C64.0156 108.846 64.7101 109.324 65.1667 108.323C65.4613 109.486 66.8374 108.833 66.9313 110.444C67.9594 109.912 71.0645 108.166 71.2685 106.818C71.3608 106.789 71.3851 106.933 71.5049 106.934C71.8481 106.432 71.8319 106.478 72.2933 106.246C72.3888 106.045 72.4099 105.808 72.4374 105.612C72.1735 105.608 71.7866 105.516 71.5324 105.568C71.5108 105.48 71.4838 105.395 71.4514 105.31C72.3176 105.328 72.3322 104.676 71.6473 104.35C72.1282 104.015 71.9339 103.96 72.0245 103.454C71.7979 103.486 71.4757 103.366 71.2523 103.413C71.2944 102.715 71.9566 102.626 72.5734 102.733C72.5459 102.702 72.3095 102.419 72.4293 102.591C72.7806 102.534 72.8534 102.382 73.1416 102.22C72.7984 102.12 72.5345 101.867 72.0537 101.928C72.2917 101.457 72.7207 101.166 73.2339 101.163C73.2922 101.362 73.4719 101.561 73.5188 101.699C74.1858 101.242 73.922 100.81 74.1033 100.3C74.2619 99.8546 74.487 99.3463 74.8755 98.7392C75.2738 98.1159 75.2608 96.2606 76.0719 96.1213C75.8874 95.5304 76.2581 95.1111 76.4912 94.5429C77.3331 96.0226 80.3573 95.3637 79.0929 93.68C78.5117 92.9045 76.0007 92.6875 76.2403 91.1738C76.4556 91.2693 76.9381 91.1868 77.1485 91.271C77.3574 90.3935 76.6661 89.5597 76.2613 88.8344C75.6202 87.6834 75.4324 87.5425 75.7983 86.3202C75.515 86.2733 75.277 86.0758 75.0228 86.0337C75.2819 85.8653 75.6526 85.6225 76.0784 85.5982C75.4211 84.7061 75.515 84.0618 74.7088 83.6328C74.2441 83.3851 71.9306 83.0483 71.3915 83.3284C69.4067 84.3613 70.4007 88.3099 68.0403 89.2618C68.4548 90.5781 67.4105 91.9202 67.1645 93.1651C65.6184 93.5844 64.3831 93.2558 63.0248 94.2142C62.0194 92.4997 61.435 93.7674 60.1674 94.2401C59.353 94.5445 57.4556 94.1948 56.6494 94.007C56.4972 94.1041 56.5717 94.2191 56.5005 94.3486C55.5841 93.7609 55.8448 94.9346 55.1826 94.8132C54.5302 94.6934 54.5966 94.0944 54.2275 93.7253C53.6187 93.1182 52.3122 92.7652 51.9399 91.8133C51.8266 92.1322 51.595 92.5758 51.5319 92.9126M81.0858 115.17C81.1198 115.273 81.3238 115.184 81.2024 115.422C80.5159 115.283 79.8327 114.063 80.1679 113.308C80.3573 112.881 81.0583 112.877 81.3853 112.364C82.1446 111.174 81.0049 109.856 81.0648 108.443C80.5694 108.453 80.0966 108.561 79.6061 108.681C79.6401 107.81 79.2224 107.062 79.3535 106.152C80.1047 106.097 80.0691 105.298 80.0319 104.671C81.5148 103.68 79.9185 98.3555 82.6772 100.588C82.9573 99.594 81.4857 97.8973 82.1575 96.6556C82.6076 95.8218 82.9233 96.3415 83.6551 96.0129C84.4322 95.6632 84.3528 95.2293 84.8337 94.6335C86.3441 92.762 87.8951 95.4802 89.8281 94.1381C90.2426 94.6869 92.8491 96.1229 92.7179 94.5396C93.8302 96.144 96.1096 94.525 97.0454 93.5844C97.4485 93.1797 98.5251 91.8473 99.3411 92.7361C100.256 93.7318 98.1511 95.0026 97.5214 95.4673C96.5565 96.178 96.1501 96.5002 95.1205 96.6507C94.9408 96.6783 94.039 96.8256 93.9338 96.7981C93.6553 96.7284 93.4513 96.1731 93.1033 96.1424C92.2193 96.0598 88.9798 96.866 88.6204 96.0274C87.3236 97.0684 86.9011 95.7182 85.6755 96.0048C84.9697 96.1699 83.15 98.0446 83.1095 98.7116C83.0463 99.7348 84.4937 100.905 85.1008 101.543C85.5217 101.984 85.478 102.88 86.3943 102.364C86.995 102.026 86.8331 100.69 87.0484 100.081C87.9097 99.8983 88.1671 100.544 88.779 100.573C89.8767 100.627 89.9155 99.8239 90.7979 99.5114C92.093 99.0549 93.351 99.2912 94.0552 100.196C93.6747 100.972 93.1486 100.646 92.8329 100.831C92.6597 100.931 92.2064 101.119 91.902 101.305C91.779 101.38 91.8534 101.922 91.6171 102.094C90.7331 102.735 88.554 102.515 88.3484 104.09C88.1266 103.902 87.0338 103.352 87.2928 104.247C87.4386 104.752 88.0861 104.676 88.5119 105.022C88.949 105.38 90.1341 106.546 90.2685 107.077C90.6295 108.505 89.3117 108.408 90.4369 109.742C90.7784 110.146 90.7833 110.396 91.3386 110.617C91.9716 110.872 92.3278 110.161 92.9203 110.888C91.7158 111.519 89.2032 111.037 89.0607 112.889C89.2761 113.023 89.3538 113.198 89.4315 113.263C88.6285 113.094 87.7963 112.348 87.0403 112.321C87.1391 111.958 87.1892 111.49 87.4094 111.161C87.1909 110.634 86.5174 110.512 86.3474 110.151C86.0948 109.623 86.2195 108.875 86.2146 108.26C86.2049 106.87 85.5266 105.906 84.4953 107.477C84.0906 108.093 84.2428 108.705 84.0598 109.405C84.0291 109.521 83.6486 110.046 83.6486 110.067C83.6389 110.538 83.9967 110.674 84.0355 110.98C84.1893 112.178 83.5304 113.81 84.1731 114.734C83.6745 115.102 81.3497 115.33 81.2234 115.17M146.519 126.368C147.139 125.413 147.194 123.028 147.194 121.617C147.194 120.822 147.395 119.714 147.194 118.949C147.084 118.526 146.553 118.256 146.537 117.869C146.52 117.542 146.953 117.1 147.032 116.792C147.48 115.068 147.311 113.217 147.165 111.428C147.008 109.513 147.265 107.64 147.175 105.746C146.53 105.748 146.378 105.247 145.845 105.048C145.274 104.835 144.68 104.765 144.092 104.507C143.058 104.054 141.596 103.117 140.556 102.923C139.609 102.746 139.619 103.057 138.722 102.617C137.998 102.26 138.162 101.797 137.203 101.979C136.321 102.145 135.149 103.211 135.847 104.069C135.291 104.723 135.084 104.132 134.616 104.271C133.954 104.472 133.935 104.614 133.436 104.922C132.489 105.503 131.608 105.675 131.793 107.052C131.625 106.983 131.208 107.035 131.03 106.955C130.713 108.474 129.343 108.378 128.731 107.208C128.506 106.776 128.686 105.442 128.034 105.442C127.37 105.442 127.425 106.449 127.572 106.792C127.001 105.369 126.31 104.532 126.544 102.913C126.625 102.359 127.007 101.935 126.962 101.234C126.936 100.857 126.46 100.936 126.439 100.706C126.405 100.311 126.611 99.7802 126.735 99.3916C126.263 99.6264 124.695 100.107 124.124 99.9275C123.368 99.6895 123.198 98.8833 122.497 98.574C120.823 97.8309 119.469 99.6701 118.074 100.078C118.241 101.1 117.734 101.592 117.091 102.212C117.499 102.851 118.174 102.665 118.594 102.202C118.802 102.406 119.312 102.749 119.442 102.989C119.641 103.356 119.322 104.057 119.534 104.373C120.272 105.471 121.265 104.148 122.233 103.965C123.481 103.729 127.614 104.626 124.935 105.945C124.33 105.268 122.176 104.663 122.725 106.272C121.676 106.369 120.336 104.919 119.79 106.539C120.402 106.792 122.665 108.147 122.487 109.076C122.256 109.044 121.942 109.157 121.712 109.117C122.249 110.318 123.481 111.595 124.435 110.069C124.838 109.426 124.519 108.994 124.657 108.416C124.754 108.011 125.176 107.456 125.348 107.009C125.341 108.317 125.895 108.769 126.172 109.886C126.365 109.788 126.556 109.863 126.798 109.68C126.86 109.944 127.176 110.182 127.236 110.328C127.389 110.208 127.653 110.151 127.781 110.056C128.341 113.143 136.449 111.202 136.292 114.339C136.899 114.213 137.548 113.917 138.149 114.349C137.964 114.577 137.849 115.05 137.634 115.277C138.11 115.316 138.612 115.293 139.086 115.327C138.889 115.524 138.646 115.921 138.306 116.086C138.434 116.125 138.549 116.101 138.678 116.132C138.453 117.096 139.588 118.829 140.712 118.834C140.525 118.916 140.124 119.356 139.897 119.481C140.519 120.658 141.167 119.946 142.195 120.045C141.916 120.681 141.079 120.763 140.467 120.998C141.089 121.544 140.945 122.154 140.598 122.836C141.181 122.896 142.161 122.881 142.648 122.849C142.357 122.868 143.546 122.954 143.176 122.883C143.477 122.942 143.849 122.674 144.21 122.742C144.133 123.14 144.243 123.509 144.013 123.907C144.26 123.914 144.57 124.132 144.882 124.09C145.152 125.003 146.758 126.345 146.525 126.902M92.9592 129.606C92.9576 129.603 92.794 129.404 92.8507 129.08C92.9511 129.149 93.0806 129.269 93.1955 129.324C93.5064 128.518 93.3477 127.411 94.4405 127.174C95.114 127.029 96.4917 128.235 96.3525 126.384C97.7885 125.789 97.421 127.297 98.4442 127.717C97.5667 128.18 96.7151 128.894 96.1695 129.727C95.1642 128.988 95.2597 130.069 94.5506 130.119C93.8091 130.171 93.3607 129.47 92.8264 129.742M80.5467 126.368C80.1177 126.682 78.3239 126.873 78.952 128.105C79.5656 128.136 79.9121 128.516 80.4431 128.635C81.0615 128.771 81.4873 128.389 82.1543 128.824C82.0685 130.38 84.5374 130.163 84.8482 128.827C84.3464 128.322 83.0625 128.065 83.2261 127.348C82.7323 126.855 81.8613 126.441 81.8758 127.427C81.1441 127.62 80.6244 126.969 80.4139 126.639M82.0313 124.479C81.8969 122.5 85.9977 124.163 86.3377 123.514C86.8234 124.048 87.207 124.183 87.8401 124.32C87.7089 124.291 89.2939 124.375 89.2842 124.377C90.2928 124.242 90.7752 122.58 91.8567 122.884C93.1599 125.081 88.4488 125.02 87.56 125.151C85.8795 125.398 83.1111 126.059 81.8904 124.33C81.9163 124.032 81.9228 124.717 81.8969 124.615M104.426 107.75C103.699 107.844 102.292 107.331 101.344 107.909C101.091 109.047 102.364 109.141 103.205 109.1C103.759 109.073 104.051 109.377 104.399 108.837C104.766 108.267 104.491 107.966 103.906 108C103.944 107.778 103.887 107.596 103.994 107.352C104.182 107.235 103.911 107.456 103.887 107.481M108.339 106.402C107.785 106.824 107.292 107.732 106.902 108.404C107.531 108.307 108.03 107.849 108.726 107.902C108.634 109.07 109.827 108.401 110.342 108.034C110.363 108.161 110.345 108.278 110.386 108.403C110.491 108.552 110.683 108.542 110.794 108.812C111.996 108.408 112.383 108.254 113.573 108.958C114.19 109.322 115.838 110.621 116.062 108.994C116.175 108.161 114.197 107.877 113.431 107.509C112.338 106.984 111.841 106.238 110.658 107.2C110.097 106.329 107.724 106.047 107.539 107.392C107.382 107.405 107.288 107.299 107.258 107.075M118.726 120.163C118.304 120.344 116.46 122.353 117.098 122.84C118.153 123.647 118.458 120.92 118.322 120.433M107.53 91.156C106.958 91.4296 106 92.095 106.058 93.1603C106.228 93.1603 106.411 93.2024 106.581 93.1991C105.459 94.3373 106.591 95.0755 105.932 96.3901C106.21 96.4937 106.387 96.7786 106.698 96.8385C106.377 98.3231 107.418 99.7575 108.588 100.588C108.548 99.8902 107.742 99.5211 107.421 98.8476C107.14 98.2535 107.136 97.355 107.146 96.6944C107.847 97.2125 108.967 97.1898 109.803 97.2028C109.911 96.2201 108.778 95.8931 108.185 95.3426C108.529 94.9023 111.203 93.5844 109.699 92.6584C108.653 92.0124 108.459 94.5671 107.386 94.7549C107.144 93.6719 108.113 93.2218 108.189 92.2261C107.902 92.1096 107.713 91.7761 107.407 91.6692C107.507 91.3422 107.7 90.85 107.936 90.6137M69.7532 124.749C70.854 125.267 70.527 123.443 71.5065 123.397C72.915 123.333 71.8869 124.668 71.7526 125.266C71.2475 125.492 70.6743 125.487 70.1385 125.29C69.9507 125.146 70.2486 125.249 70.2939 125.156M45.8737 107.616C45.3135 107.341 45.4042 106.298 45.6179 105.613C46.2185 105.445 48.0997 106.274 48.1774 106.803C48.3507 108.013 47.0167 107.833 46.5455 107.195C46.3772 107.339 46.0194 107.472 45.8915 107.605C45.8024 107.392 45.9417 107.384 46.0097 107.21M76.3649 123.265C76.2178 123.341 76.0927 123.453 76.0017 123.592C75.9107 123.73 75.8568 123.889 75.8453 124.055C76.7616 124.217 77.2424 125.151 78.1183 125.296C79.0071 125.442 80.1177 124.871 79.3082 123.964C78.8484 124.15 78.8468 123.778 78.523 124.298C78.0988 123.248 76.6029 123.179 75.9602 123.535"
        fill="white" />
</svg>