<svg width="20" height="20" viewBox="0 0 20 17" fill="none" xmlns="http://www.w3.org/2000/svg">
<path d="M13.2255 9.84957C13.2255 11.6282 11.7786 13.0751 10 13.0751C8.22137 13.0751 6.77503 11.6282 6.77503 9.84957C6.77503 8.07094 8.22137 6.62405 10 6.62405C11.7786 6.62405 13.2255 8.07149 13.2255 9.84957ZM20 5.26948V14.4308C20 15.0173 19.767 15.5798 19.3523 15.9945C18.9375 16.4093 18.375 16.6423 17.7885 16.6423H2.21153C1.625 16.6423 1.06249 16.4093 0.647743 15.9945C0.233 15.5798 0 15.0173 0 14.4308V5.26948C0 4.68295 0.233 4.12043 0.647743 3.70569C1.06249 3.29095 1.625 3.05795 2.21153 3.05795H4.93172V2.29276C4.93172 1.77954 5.13559 1.28734 5.49849 0.924441C5.86139 0.561541 6.35359 0.357666 6.86681 0.357666H13.1332C13.6464 0.357666 14.1386 0.561541 14.5015 0.924441C14.8644 1.28734 15.0683 1.77954 15.0683 2.29276V3.0574H17.7885C19.0098 3.05795 20 4.04816 20 5.26948ZM14.8842 9.84957C14.8842 7.15647 12.6931 4.9654 10 4.9654C7.30746 4.9654 5.11638 7.15647 5.11638 9.84957C5.11638 12.5427 7.30746 14.7337 10 14.7337C12.6931 14.7337 14.8842 12.5427 14.8842 9.84957Z" fill="white"/>
</svg>