<svg width="41" height="40" viewBox="0 0 41 40" fill="none" xmlns="http://www.w3.org/2000/svg">
    <g clip-path="url(#clip0_77_728)">
        <path
            d="M17.0875 18.2706L21.7613 22.9444L5.67128 39.035C5.51483 39.1926 5.32876 39.3176 5.12377 39.4029C4.91879 39.4883 4.69894 39.5322 4.4769 39.5322C4.25486 39.5322 4.03502 39.4883 3.83003 39.4029C3.62505 39.3176 3.43897 39.1926 3.28253 39.035L0.996902 36.7494C0.839434 36.5929 0.714463 36.4069 0.629183 36.202C0.543904 35.997 0.5 35.7773 0.5 35.5553C0.5 35.3333 0.543904 35.1136 0.629183 34.9086C0.714463 34.7037 0.839434 34.5177 0.996902 34.3612L17.0875 18.2706ZM27.8982 14.4306L25.6013 12.1337C25.2849 11.8208 24.8578 11.6453 24.4128 11.6453C23.9678 11.6453 23.5408 11.8208 23.2244 12.1337L17.8869 17.4712L22.5725 22.1337L27.8982 16.8081C28.2113 16.4917 28.3869 16.0645 28.3869 15.6194C28.3869 15.1742 28.2113 14.747 27.8982 14.4306ZM17.2144 0.669991L16.695 2.35374C16.4836 3.03941 16.1078 3.66304 15.6005 4.17042C15.0931 4.67779 14.4694 5.05354 13.7838 5.26499L12.0994 5.78437C12.0408 5.80229 11.9894 5.83856 11.953 5.88784C11.9165 5.93712 11.8968 5.99681 11.8968 6.05812C11.8968 6.11942 11.9165 6.17911 11.953 6.22839C11.9894 6.27768 12.0408 6.31395 12.0994 6.33187L13.7838 6.85124C14.4694 7.06269 15.0931 7.43844 15.6005 7.94582C16.1078 8.45319 16.4836 9.07682 16.695 9.76249L17.2138 11.4469C17.2315 11.5057 17.2678 11.5573 17.3171 11.594C17.3665 11.6307 17.4263 11.6505 17.4878 11.6505C17.5493 11.6505 17.6092 11.6307 17.6586 11.594C17.7079 11.5573 17.7442 11.5057 17.7619 11.4469L18.2807 9.76249C18.4922 9.07675 18.868 8.45307 19.3755 7.94569C19.883 7.43832 20.5067 7.06261 21.1925 6.85124L22.8763 6.33249C22.9352 6.31474 22.9867 6.2785 23.0234 6.22914C23.0601 6.17978 23.0799 6.11992 23.0799 6.05843C23.0799 5.99694 23.0601 5.93708 23.0234 5.88772C22.9867 5.83836 22.9352 5.80212 22.8763 5.78437L21.1925 5.26562C20.5068 5.0541 19.8831 4.67826 19.3757 4.17077C18.8684 3.66329 18.4926 3.03953 18.2813 2.35374L17.7619 0.669991C17.744 0.61136 17.7077 0.560031 17.6584 0.523561C17.6091 0.487091 17.5495 0.467407 17.4882 0.467407C17.4268 0.467407 17.3672 0.487091 17.3179 0.523561C17.2686 0.560031 17.2323 0.61136 17.2144 0.669991ZM29.7638 21.9119L29.4463 22.9406C29.3171 23.3593 29.0875 23.7401 28.7777 24.0499C28.4678 24.3597 28.0869 24.5891 27.6682 24.7181L26.64 25.0356C26.6043 25.0467 26.5731 25.0689 26.5509 25.0989C26.5287 25.129 26.5167 25.1654 26.5167 25.2028C26.5167 25.2402 26.5287 25.2766 26.5509 25.3067C26.5731 25.3368 26.6043 25.3589 26.64 25.37L27.6682 25.6869C28.087 25.816 28.4679 26.0455 28.7778 26.3554C29.0877 26.6653 29.3172 27.0462 29.4463 27.465L29.7638 28.4937C29.7748 28.5295 29.797 28.5607 29.8271 28.5829C29.8572 28.6051 29.8936 28.617 29.931 28.617C29.9683 28.617 30.0047 28.6051 30.0348 28.5829C30.0649 28.5607 30.0871 28.5295 30.0982 28.4937L30.415 27.465C30.5443 27.0462 30.7739 26.6654 31.0839 26.3556C31.3939 26.0458 31.7749 25.8165 32.1938 25.6875L33.2219 25.3706C33.2576 25.3596 33.2889 25.3374 33.311 25.3073C33.3332 25.2772 33.3452 25.2408 33.3452 25.2034C33.3452 25.166 33.3332 25.1296 33.311 25.0996C33.2889 25.0695 33.2576 25.0473 33.2219 25.0362L32.1938 24.7187C31.775 24.5897 31.3942 24.3603 31.0843 24.0505C30.7744 23.7407 30.5449 23.3599 30.4157 22.9412L30.0988 21.9125C30.0877 21.8768 30.0655 21.8455 30.0355 21.8234C30.0054 21.8012 29.969 21.7892 29.9316 21.7892C29.8942 21.7892 29.8578 21.8012 29.8277 21.8234C29.7976 21.8455 29.7754 21.8768 29.7644 21.9125L29.7638 21.9119ZM36.0513 11.8019L35.6575 13.0794C35.4971 13.5994 35.2121 14.0724 34.8273 14.4573C34.4425 14.8421 33.9695 15.1271 33.4494 15.2875L32.1725 15.6812C32.1281 15.695 32.0893 15.7225 32.0617 15.7599C32.0341 15.7973 32.0192 15.8426 32.0192 15.8891C32.0192 15.9355 32.0341 15.9808 32.0617 16.0182C32.0893 16.0556 32.1281 16.0832 32.1725 16.0969L33.4494 16.4906C33.9696 16.651 34.4428 16.936 34.8278 17.321C35.2127 17.7059 35.4978 18.1791 35.6581 18.6994L36.0519 19.9762C36.1144 20.1806 36.4044 20.1806 36.4669 19.9762L36.8606 18.6994C37.021 18.1791 37.3061 17.7059 37.691 17.321C38.076 16.936 38.5492 16.651 39.0694 16.4906L40.3469 16.0969C40.3913 16.0832 40.4301 16.0556 40.4577 16.0182C40.4853 15.9808 40.5002 15.9355 40.5002 15.8891C40.5002 15.8426 40.4853 15.7973 40.4577 15.7599C40.4301 15.7225 40.3913 15.695 40.3469 15.6812L39.0694 15.2875C38.5493 15.1271 38.0763 14.8421 37.6915 14.4573C37.3067 14.0724 37.0217 13.5994 36.8613 13.0794L36.4675 11.8019C36.4538 11.7575 36.4262 11.7186 36.3888 11.691C36.3514 11.6634 36.3062 11.6486 36.2597 11.6486C36.2132 11.6486 36.168 11.6634 36.1306 11.691C36.0932 11.7186 36.065 11.7575 36.0513 11.8019Z"
            fill="white" />
    </g>
    <defs>
        <clipPath id="clip0_77_728">
            <rect width="40" height="40" fill="white" transform="translate(0.5)" />
        </clipPath>
    </defs>
</svg>