<svg width="25" height="25" viewBox="0 0 25 25" fill="none" xmlns="http://www.w3.org/2000/svg">
<path d="M23.0167 2.17666C21.7226 0.773047 19.9469 0 18.0163 0C16.5731 0 15.2516 0.45625 14.088 1.35596C13.501 1.81006 12.969 2.36572 12.5 3.01416C12.0312 2.36587 11.499 1.81006 10.9118 1.35596C9.74844 0.45625 8.42686 0 6.98374 0C5.05312 0 3.2772 0.773047 1.98306 2.17666C0.704394 3.56387 0 5.45903 0 7.51323C0 9.62749 0.787939 11.5629 2.47954 13.6042C3.99282 15.4301 6.16777 17.2836 8.68643 19.43C9.54648 20.163 10.5213 20.9938 11.5335 21.8788C11.801 22.1131 12.1445 22.2421 12.5 22.242C12.8557 22.242 13.199 22.113 13.4661 21.8792C14.4783 20.994 15.4537 20.1628 16.3141 19.4294C18.8324 17.2834 21.0073 15.4301 22.5207 13.604C24.2123 11.563 25 9.62754 25 7.51304C25 5.45903 24.2956 3.56387 23.0167 2.17666Z" fill="white"/>
</svg>
