<svg width="48" height="48" viewBox="0 0 48 48" fill="none" xmlns="http://www.w3.org/2000/svg">
<g clip-path="url(#clip0_74_617)">
<path d="M24 0C10.7456 0 0 10.7456 0 24C0 37.2544 10.7456 48 24 48C37.2544 48 48 37.2544 48 24C48 10.7456 37.2544 0 24 0ZM24 7.3125C25.7038 7.3125 27.3694 7.81774 28.7861 8.76434C30.2027 9.71093 31.3069 11.0564 31.9589 12.6305C32.611 14.2046 32.7816 15.9367 32.4492 17.6078C32.1168 19.2789 31.2963 20.8139 30.0915 22.0187C28.8867 23.2235 27.3517 24.0439 25.6806 24.3763C24.0096 24.7087 22.2774 24.5381 20.7033 23.8861C19.1292 23.2341 17.7837 22.1299 16.8371 20.7133C15.8906 19.2966 15.3853 17.631 15.3853 15.9272C15.3853 13.6424 16.2929 11.4513 17.9085 9.83568C19.5241 8.22012 21.7152 7.3125 24 7.3125ZM38.4019 36.0075C36.6422 38.1183 34.44 39.8165 31.9513 40.9819C29.4626 42.1472 26.7481 42.7513 24 42.7513C21.2519 42.7513 18.5374 42.1472 16.0487 40.9819C13.56 39.8165 11.3578 38.1183 9.59812 36.0075C9.36016 35.7223 9.19264 35.3852 9.10909 35.0233C9.02554 34.6614 9.02832 34.285 9.11719 33.9244C9.93391 30.6104 11.8329 27.6635 14.5134 25.5506C14.9133 25.2372 15.4049 25.0635 15.9129 25.0562C16.4209 25.0489 16.9173 25.2084 17.3259 25.5103C19.1072 26.835 21.4425 27.6375 23.9963 27.6375C26.55 27.6375 28.8844 26.835 30.6666 25.5103C31.0752 25.2084 31.5716 25.0489 32.0796 25.0562C32.5876 25.0635 33.0792 25.2372 33.4791 25.5506C36.1596 27.6635 38.0586 30.6104 38.8753 33.9244C38.9652 34.2844 38.9692 34.6605 38.8869 35.0224C38.8047 35.3842 38.6385 35.7217 38.4019 36.0075Z" fill="#CFCFCF"/>
</g>
<defs>
<clipPath id="clip0_74_617">
<rect width="48" height="48" fill="white"/>
</clipPath>
</defs>
</svg>
