<svg width="21" height="22" viewBox="0 0 21 22" fill="none" xmlns="http://www.w3.org/2000/svg">
<path d="M9.49606 2.6505C7.50901 2.65383 5.60429 3.44467 4.19923 4.84973C2.79416 6.25479 2.00333 8.15951 2 10.1466C2.00166 12.1353 2.79155 14.0423 4.19662 15.4497C5.60168 16.8571 7.50734 17.6502 9.49606 17.6552C11.2598 17.6552 12.885 17.0348 14.1701 16.008L17.2913 19.1292C17.4495 19.2763 17.6584 19.3563 17.8743 19.3525C18.0902 19.3487 18.2962 19.2614 18.4491 19.109C18.602 18.9565 18.6898 18.7507 18.6942 18.5348C18.6985 18.319 18.619 18.1098 18.4724 17.9513L15.3512 14.8269C16.4172 13.5011 16.9984 11.8509 16.9984 10.1497C16.9984 6.01743 13.6283 2.6505 9.49606 2.6505ZM9.49606 4.3198C12.7276 4.3198 15.3291 6.91822 15.3291 10.1466C15.3291 13.3749 12.7276 15.9891 9.49606 15.9891C6.26457 15.9891 3.66614 13.3844 3.66614 10.1529C3.66614 6.92137 6.26457 4.3198 9.49606 4.3198Z" fill="#A0A0A0"/>
</svg>
