<svg width="30" height="30" viewBox="0 0 30 30" fill="none" xmlns="http://www.w3.org/2000/svg">
<path d="M25.5344 16.7344L18.3469 23.9219L16.3281 21.9032C17.0254 21.9287 17.7205 21.8098 18.3696 21.5538C19.0187 21.2978 19.6078 20.9103 20.1 20.4157L24.6594 15.8594L25.5344 16.7344ZM18.2156 7.18753C18.1542 7.18727 18.0942 7.16892 18.0431 7.13476C17.9921 7.1006 17.9522 7.05215 17.9286 6.99546C17.9049 6.93878 17.8984 6.87637 17.91 6.81605C17.9216 6.75572 17.9507 6.70015 17.9938 6.65628L19.225 5.42503C19.253 5.39232 19.2875 5.36575 19.3263 5.34699C19.365 5.32823 19.4073 5.31769 19.4503 5.31603C19.4933 5.31437 19.5362 5.32162 19.5764 5.33733C19.6165 5.35304 19.6529 5.37687 19.6833 5.40733C19.7138 5.43778 19.7376 5.4742 19.7533 5.5143C19.769 5.5544 19.7763 5.59732 19.7746 5.64036C19.773 5.68339 19.7624 5.72562 19.7437 5.76439C19.7249 5.80316 19.6983 5.83764 19.6656 5.86565L18.4375 7.1094C18.3765 7.16335 18.2969 7.19138 18.2156 7.18753ZM19.625 10.625C19.5629 10.6254 19.5022 10.6073 19.4504 10.5729C19.3987 10.5386 19.3584 10.4897 19.3346 10.4324C19.3108 10.375 19.3046 10.3119 19.3168 10.2511C19.329 10.1902 19.3591 10.1344 19.4031 10.0907L20.625 8.86878C20.6541 8.83964 20.6887 8.81653 20.7268 8.80076C20.7649 8.78499 20.8057 8.77687 20.8469 8.77687C20.8881 8.77687 20.9289 8.78499 20.967 8.80076C21.005 8.81653 21.0396 8.83964 21.0687 8.86878C21.0979 8.89791 21.121 8.93251 21.1368 8.97058C21.1525 9.00864 21.1607 9.04945 21.1607 9.09065C21.1607 9.13186 21.1525 9.17266 21.1368 9.21073C21.121 9.2488 21.0979 9.28339 21.0687 9.31253L19.8375 10.5438C19.7794 10.5966 19.7035 10.6256 19.625 10.625ZM20.9375 14.1688C20.8757 14.1685 20.8154 14.1499 20.7641 14.1154C20.7129 14.0808 20.673 14.0319 20.6496 13.9747C20.6262 13.9175 20.6203 13.8546 20.6326 13.794C20.6449 13.7335 20.6749 13.6779 20.7188 13.6344L21.9469 12.4032C21.9759 12.3739 22.0105 12.3506 22.0486 12.3347C22.0866 12.3189 22.1275 12.3107 22.1688 12.3107C22.21 12.3107 22.2508 12.3189 22.2889 12.3347C22.327 12.3506 22.3616 12.3739 22.3906 12.4032C22.4488 12.4617 22.4815 12.5409 22.4815 12.6235C22.4815 12.706 22.4488 12.7852 22.3906 12.8438L21.1562 14.0625C21.1287 14.094 21.0952 14.1196 21.0576 14.1378C21.0201 14.1561 20.9792 14.1666 20.9375 14.1688Z" fill="white"/>
<path d="M24.5344 15.1L19.6656 19.9656C19.1843 20.4512 18.5977 20.8196 17.9512 21.0423C17.3048 21.265 16.6158 21.3361 15.9375 21.25L15.0594 21.1344C14.6803 21.0852 14.2951 21.1236 13.9332 21.2465C13.5713 21.3695 13.2425 21.5738 12.9719 21.8438L11.6594 23.1563C11.6313 23.125 4.4 15.8781 4.375 15.8781L4.39687 15.8563C4.7278 16.1716 5.14392 16.383 5.59374 16.4643C6.04357 16.5455 6.50735 16.4931 6.9277 16.3136C7.34806 16.134 7.70653 15.8351 7.95877 15.4539C8.21101 15.0727 8.34594 14.6259 8.34688 14.1688C8.34843 14.1386 8.34843 14.1083 8.34688 14.0781C8.37596 14.0812 8.40529 14.0812 8.43438 14.0781C8.74885 14.078 9.06006 14.0143 9.34937 13.891C9.63867 13.7677 9.90013 13.5874 10.1181 13.3607C10.336 13.1339 10.506 12.8656 10.6178 12.5717C10.7296 12.2777 10.7809 11.9643 10.7688 11.65C10.7978 11.6531 10.8272 11.6531 10.8563 11.65C11.1711 11.6503 11.4828 11.5868 11.7725 11.4635C12.0623 11.3402 12.324 11.1595 12.5421 10.9324C12.7602 10.7053 12.9301 10.4364 13.0415 10.1419C13.153 9.84737 13.2037 9.53337 13.1906 9.21876C13.2197 9.22187 13.249 9.22187 13.2781 9.21876C13.7352 9.21868 14.1823 9.08438 14.5638 8.83255C14.9452 8.58071 15.2444 8.22241 15.4241 7.8021C15.6038 7.38179 15.6562 6.91797 15.5747 6.46817C15.4932 6.01838 15.2814 5.60242 14.9656 5.27189L17.5 2.75314C17.6691 2.58419 17.8716 2.4525 18.0946 2.36654C18.3176 2.28058 18.5562 2.24226 18.7949 2.25403C19.0336 2.26581 19.2672 2.32742 19.4807 2.43491C19.6942 2.54239 19.8828 2.69337 20.0344 2.87814C20.3009 3.22154 20.4314 3.65119 20.4008 4.0848C20.3702 4.51841 20.1808 4.92551 19.8688 5.22814L19.4469 5.65626C19.6164 5.48768 19.8193 5.35634 20.0425 5.27062C20.2658 5.18491 20.5044 5.14671 20.7432 5.15848C20.982 5.17024 21.2158 5.23171 21.4295 5.33895C21.6432 5.44618 21.8322 5.59683 21.9844 5.78126C22.2487 6.12457 22.3776 6.55311 22.3465 6.98529C22.3154 7.41747 22.1264 7.82312 21.8156 8.12501L20.8563 9.08439C21.0251 8.915 21.2276 8.78291 21.4506 8.69668C21.6737 8.61044 21.9124 8.57197 22.1512 8.58375C22.3901 8.59553 22.6238 8.6573 22.8373 8.76507C23.0508 8.87284 23.2393 9.02421 23.3906 9.20939C23.6587 9.55275 23.7901 9.98321 23.7595 10.4177C23.7289 10.8523 23.5385 11.2601 23.225 11.5625L22.1688 12.6188C22.338 12.4508 22.5404 12.3199 22.7631 12.2345C22.9858 12.1491 23.2238 12.1111 23.462 12.1229C23.7001 12.1347 23.9332 12.1959 24.1464 12.3028C24.3596 12.4097 24.5481 12.5599 24.7 12.7438C24.9683 13.0876 25.0998 13.5186 25.0692 13.9537C25.0386 14.3887 24.8481 14.7971 24.5344 15.1Z" fill="white"/>
<path d="M11.2025 23.5768L3.95028 16.3245C3.72694 16.1012 3.36485 16.1012 3.14152 16.3245L0.476612 18.9895C0.253281 19.2128 0.253282 19.5749 0.476614 19.7982L7.72888 27.0505C7.95221 27.2738 8.3143 27.2738 8.53763 27.0505L11.2025 24.3856C11.4259 24.1622 11.4259 23.8001 11.2025 23.5768Z" fill="white"/>
<path d="M29.5252 19.7656L26.8752 17.1031C26.8223 17.0496 26.7593 17.007 26.6899 16.978C26.6204 16.949 26.5458 16.934 26.4705 16.934C26.3953 16.934 26.3207 16.949 26.2512 16.978C26.1818 17.007 26.1188 17.0496 26.0659 17.1031L18.8159 24.3531C18.7623 24.406 18.7198 24.469 18.6907 24.5385C18.6617 24.608 18.6467 24.6825 18.6467 24.7578C18.6467 24.8331 18.6617 24.9076 18.6907 24.9771C18.7198 25.0466 18.7623 25.1096 18.8159 25.1625L21.4659 27.8125C21.5188 27.8661 21.5818 27.9086 21.6512 27.9376C21.7207 27.9667 21.7953 27.9816 21.8705 27.9816C21.9458 27.9816 22.0204 27.9667 22.0899 27.9376C22.1593 27.9086 22.2223 27.8661 22.2752 27.8125L29.5252 20.5625C29.6296 20.4562 29.6881 20.3131 29.6881 20.1641C29.6881 20.015 29.6296 19.872 29.5252 19.7656ZM22.0221 25.625C21.8219 25.625 21.6261 25.5656 21.4596 25.4544C21.2931 25.3431 21.1633 25.185 21.0867 25C21.01 24.815 20.99 24.6114 21.0291 24.415C21.0681 24.2186 21.1646 24.0382 21.3062 23.8966C21.4478 23.755 21.6282 23.6585 21.8246 23.6195C22.021 23.5804 22.2246 23.6004 22.4096 23.6771C22.5946 23.7537 22.7527 23.8835 22.864 24.05C22.9752 24.2165 23.0346 24.4122 23.0346 24.6125C23.0346 24.881 22.9279 25.1386 22.7381 25.3284C22.5482 25.5183 22.2906 25.625 22.0221 25.625ZM14.494 8.125C14.335 8.28403 14.1462 8.41017 13.9384 8.49624C13.7306 8.5823 13.5079 8.6266 13.283 8.6266C13.0582 8.6266 12.8355 8.5823 12.6277 8.49624C12.4199 8.41017 12.2311 8.28403 12.0721 8.125L8.88774 4.92813C8.72933 4.76849 8.60392 4.57921 8.51866 4.37111C8.4334 4.163 8.38997 3.94014 8.39084 3.71525C8.3926 3.26106 8.57471 2.82617 8.89711 2.50625C9.21952 2.18633 9.6558 2.00759 10.11 2.00935C10.5642 2.01111 10.9991 2.19322 11.319 2.51563C11.3053 2.53291 11.2937 2.5518 11.2846 2.57188C11.1418 2.86266 11.0952 3.19131 11.1513 3.51035C11.2075 3.82939 11.3636 4.12233 11.5971 4.34688L12.594 5.35C12.868 5.6225 13.2068 5.82084 13.5785 5.92635C13.9502 6.03186 14.3427 6.04107 14.719 5.95313C14.9395 6.28495 15.0377 6.68318 14.9966 7.07948C14.9555 7.47577 14.7778 7.84543 14.494 8.125ZM12.0721 10.5344C11.9135 10.6941 11.7249 10.821 11.517 10.9075C11.3092 10.994 11.0863 11.0386 10.8612 11.0386C10.636 11.0386 10.4131 10.994 10.2053 10.9075C9.99749 10.821 9.80884 10.6941 9.65024 10.5344C7.46274 8.34687 7.91586 8.80625 6.94086 7.825C6.6415 7.49649 6.48159 7.06447 6.49491 6.62022C6.50823 6.17597 6.69374 5.7543 7.01225 5.44432C7.33075 5.13434 7.75729 4.96032 8.20174 4.95905C8.64618 4.95778 9.07371 5.12935 9.39399 5.4375L12.0721 8.125C12.388 8.44642 12.565 8.87904 12.565 9.32969C12.565 9.78033 12.388 10.213 12.0721 10.5344Z" fill="white"/>
<path d="M9.65083 12.9562C9.32914 13.2776 8.89303 13.4581 8.43833 13.4581C7.98363 13.4581 7.54752 13.2776 7.22583 12.9562L5.03833 10.7531C4.71883 10.4303 4.54065 9.99377 4.54299 9.53958C4.54534 9.0854 4.72801 8.65074 5.05083 8.33124C5.37365 8.01173 5.81016 7.83356 6.26435 7.8359C6.71854 7.83824 7.1532 8.02092 7.4727 8.34374L9.6602 10.5312C9.81908 10.6909 9.9449 10.8804 10.0304 11.0888C10.116 11.2972 10.1596 11.5204 10.1587 11.7457C10.1578 11.9709 10.1125 12.1938 10.0254 12.4016C9.93821 12.6093 9.81094 12.7978 9.65083 12.9562Z" fill="white"/>
<path d="M7.22535 15.3781C7.06633 15.5372 6.87754 15.6633 6.66977 15.7494C6.46199 15.8354 6.2393 15.8797 6.01441 15.8797C5.78952 15.8797 5.56683 15.8354 5.35905 15.7494C5.15128 15.6633 4.96249 15.5372 4.80347 15.3781L3.86597 14.4406C3.5444 14.1195 3.36357 13.6837 3.36328 13.2292C3.36299 12.7747 3.54325 12.3388 3.86441 12.0172C4.18557 11.6956 4.62132 11.5148 5.07581 11.5145C5.53029 11.5142 5.96627 11.6945 6.28785 12.0156L7.22535 12.9531C7.38559 13.1118 7.5128 13.3006 7.59961 13.5087C7.68643 13.7169 7.73113 13.9401 7.73113 14.1656C7.73113 14.3911 7.68643 14.6144 7.59961 14.8225C7.5128 15.0306 7.38559 15.2195 7.22535 15.3781ZM16.5878 2.79063L14.0003 5.375C13.6309 5.3332 13.2863 5.16806 13.0222 4.90625L12.0285 3.90625C11.9101 3.77428 11.8315 3.61144 11.8019 3.43663C11.7723 3.26182 11.7929 3.08221 11.8613 2.91863C11.9297 2.75504 12.0431 2.61421 12.1882 2.51245C12.3334 2.4107 12.5045 2.3522 12.6816 2.34375H15.8066C15.9655 2.33838 16.1227 2.37734 16.2607 2.45626C16.3987 2.53519 16.5119 2.65096 16.5878 2.79063Z" fill="white"/>
</svg>
