<svg width="40" height="40" viewBox="0 0 41 40" fill="none" xmlns="http://www.w3.org/2000/svg">
    <g clip-path="url(#clip0_77_738)">
        <path
            d="M26.951 22.6992C26.951 26.2564 24.0573 29.1502 20.5 29.1502C16.9427 29.1502 14.0501 26.2564 14.0501 22.6992C14.0501 19.1419 16.9427 16.2482 20.5 16.2482C24.0573 16.2482 26.951 19.143 26.951 22.6992ZM40.5 13.539V31.8616C40.5 33.0346 40.034 34.1597 39.2045 34.9892C38.375 35.8186 37.25 36.2846 36.0769 36.2846H4.92307C3.75 36.2846 2.62497 35.8186 1.79549 34.9892C0.966 34.1597 0.5 33.0346 0.5 31.8616V13.539C0.5 12.366 0.966 11.2409 1.79549 10.4114C2.62497 9.58196 3.75 9.11596 4.92307 9.11596H10.3634V7.58558C10.3634 6.55914 10.7712 5.57474 11.497 4.84894C12.2228 4.12314 13.2072 3.71539 14.2336 3.71539H26.7664C27.7928 3.71539 28.7772 4.12314 29.503 4.84894C30.2288 5.57474 30.6366 6.55914 30.6366 7.58558V9.11485H36.0769C38.5196 9.11596 40.5 11.0964 40.5 13.539ZM30.2683 22.6992C30.2683 17.313 25.8862 12.9309 20.5 12.9309C15.1149 12.9309 10.7328 17.313 10.7328 22.6992C10.7328 28.0854 15.1149 32.4675 20.5 32.4675C25.8862 32.4675 30.2683 28.0854 30.2683 22.6992Z"
            fill="white" />
    </g>
    <defs>
        <clipPath id="clip0_77_738">
            <rect width="40" height="40" fill="white" transform="translate(0.5)" />
        </clipPath>
    </defs>
</svg>