<svg width="40" height="40" viewBox="0 0 41 40" fill="none" xmlns="http://www.w3.org/2000/svg">
    <path
        d="M36.494 15.3333H2.5V16.75C2.5 17.5014 2.79851 18.2221 3.32986 18.7535C3.86122 19.2848 4.58189 19.5833 5.33333 19.5833H9.58333C10.3348 19.5833 11.0554 19.2848 11.5868 18.7535C12.1182 18.2221 12.4167 17.5014 12.4167 16.75C12.4167 17.5014 12.7152 18.2221 13.2465 18.7535C13.7779 19.2848 14.4986 19.5833 15.25 19.5833H23.75C24.5014 19.5833 25.2221 19.2848 25.7535 18.7535C26.2848 18.2221 26.5833 17.5014 26.5833 16.75C26.5833 17.5014 26.8818 18.2221 27.4132 18.7535C27.9445 19.2848 28.6652 19.5833 29.4167 19.5833H33.6667C34.4181 19.5833 35.1388 19.2848 35.6701 18.7535C36.2015 18.2221 36.5 17.5014 36.5 16.75V15.3333H36.494ZM36.1519 13.9167L33.6121 5.02708C33.5275 4.73115 33.3488 4.47084 33.103 4.28553C32.8572 4.10021 32.5578 3.99998 32.25 4H25.7613L27.7446 13.9167H36.1519ZM13.2387 4H6.75C6.4422 3.99998 6.14277 4.10021 5.89701 4.28553C5.65124 4.47084 5.47252 4.73115 5.38788 5.02708L2.84815 13.9167H11.2554L13.2387 4ZM22.872 4H16.128L14.1446 13.9167H24.8554L22.872 4ZM29.4167 21C28.3706 21.0009 27.3613 20.6144 26.5833 19.9152C25.8053 20.6144 24.796 21.0009 23.75 21H15.25C14.204 21.0009 13.1947 20.6144 12.4167 19.9152C11.6387 20.6144 10.6294 21.0009 9.58333 21H5.33333C4.85041 20.999 4.37124 20.9151 3.91667 20.7521V36.5833C3.91667 36.9591 4.06592 37.3194 4.3316 37.5851C4.59728 37.8507 4.95761 38 5.33333 38H8.16667V25.25C8.16667 24.8743 8.31592 24.5139 8.5816 24.2483C8.84728 23.9826 9.20761 23.8333 9.58333 23.8333H16.6667C17.0424 23.8333 17.4027 23.9826 17.6684 24.2483C17.9341 24.5139 18.0833 24.8743 18.0833 25.25V38H33.6667C34.0424 38 34.4027 37.8507 34.6684 37.5851C34.9341 37.3194 35.0833 36.9591 35.0833 36.5833V20.7521C34.6288 20.9151 34.1496 20.999 33.6667 21H29.4167ZM30.8333 29.5C30.8333 29.8757 30.6841 30.2361 30.4184 30.5017C30.1527 30.7674 29.7924 30.9167 29.4167 30.9167H22.3333C21.9576 30.9167 21.5973 30.7674 21.3316 30.5017C21.0659 30.2361 20.9167 29.8757 20.9167 29.5V25.25C20.9167 24.8743 21.0659 24.5139 21.3316 24.2483C21.5973 23.9826 21.9576 23.8333 22.3333 23.8333H29.4167C29.7924 23.8333 30.1527 23.9826 30.4184 24.2483C30.6841 24.5139 30.8333 24.8743 30.8333 25.25V29.5Z"
        fill="white" />
</svg>