<svg width="20" height="20" viewBox="0 0 21 20" fill="none" xmlns="http://www.w3.org/2000/svg">
<g clip-path="url(#clip0_361_159)">
<path d="M5.8692 7.31806H7.89323V13.3224C7.89323 13.9315 8.38716 14.4248 8.99572 14.4248H12.005C12.6136 14.4248 13.1075 13.9316 13.1075 13.3224V7.31806H15.1309C15.4661 7.31806 15.7674 7.11624 15.8963 6.80648C16.0238 6.49798 15.9529 6.14134 15.716 5.90451L11.0854 1.27332C10.762 0.950559 10.2381 0.950559 9.91396 1.27332L5.28412 5.90451C5.1683 6.02021 5.0894 6.16767 5.05743 6.32823C5.02546 6.48879 5.04185 6.65523 5.10452 6.80648C5.23333 7.11563 5.534 7.31806 5.8692 7.31806Z" fill="#9FBB73"/>
<path d="M19.5055 9.56848C18.9569 9.56848 18.5118 10.0137 18.5118 10.5629V14.7209C18.5118 15.9666 17.4978 16.9799 16.2521 16.9799H4.7478C3.50215 16.9799 2.48885 15.9666 2.48885 14.7209V10.5629C2.48885 10.0137 2.04306 9.56848 1.49442 9.56848C0.945136 9.56848 0.5 10.0137 0.5 10.5629V14.721C0.5 17.0632 2.40553 18.9688 4.7478 18.9688H16.2521C18.5944 18.9688 20.5 17.0632 20.5 14.721V10.5629C20.5 10.0137 20.0548 9.56848 19.5055 9.56848Z" fill="#9FBB73"/>
</g>
<defs>
<clipPath id="clip0_361_159">
<rect width="20" height="20" fill="white" transform="translate(0.5)"/>
</clipPath>
</defs>
</svg>
